STARTFONT 2.1
FONT stempl
SIZE 26 75 75
FONTBOUNDINGBOX 28 28 0 0

STARTPROPERTIES 10
COPYRIGHT "Public domain font.  Share and enjoy."
POINT_SIZE 260
WEIGHT 10
RESOLUTION_X 75
RESOLUTION_Y 75
X_HEIGHT 0
QUAD_WIDTH 28
DEFAULT_CHAR 0
FONT_DESCENT 0
FONT_ASCENT 28
ENDPROPERTIES

CHARS 27

STARTCHAR C040
ENCODING 32
SWIDTH 1076 0
DWIDTH 28 0
BBX 28 28 0 0
BITMAP
00000000
00000000
00000000
00000000
00000000
00000000
00000000
00000000
00000000
00000000
00000000
00000000
00000000
00000000
00000000
00000000
00000000
00000000
00000000
00000000
00000000
00000000
00000000
00000000
00000000
00000000
00000000
00000000
ENDCHAR

STARTCHAR A
ENCODING 65
SWIDTH 1076 0
DWIDTH 28 0
BBX 28 28 0 0
BITMAP
00000000
00000000
00000000
00000000
00000000
00000000
00000000
00000000
00000000
00000000
FF000000
FF000000
FF000000
FF000000
FF000000
FF000000
FF000000
FF000000
00000000
00000000
00000000
00000000
00000000
00000000
00000000
00000000
00000000
00000000
ENDCHAR

STARTCHAR B
ENCODING 66
SWIDTH 1076 0
DWIDTH 28 0
BBX 28 28 0 0
BITMAP
18000000
18000000
18000000
18000000
18000000
18000000
18000000
18000000
18000000
18000000
FF000000
FF000000
FF000000
FF000000
FF000000
FF000000
FF000000
FF000000
00000000
00000000
00000000
00000000
00000000
00000000
00000000
00000000
00000000
00000000
ENDCHAR

STARTCHAR C
ENCODING 67
SWIDTH 1076 0
DWIDTH 28 0
BBX 28 28 0 0
BITMAP
00000000
00000000
00000000
00000000
00000000
00000000
00000000
00000000
00000000
00000000
FF000000
FF000000
FF000000
FFFFC000
FFFFC000
FF000000
FF000000
FF000000
00000000
00000000
00000000
00000000
00000000
00000000
00000000
00000000
00000000
00000000
ENDCHAR

STARTCHAR D
ENCODING 68
SWIDTH 1076 0
DWIDTH 28 0
BBX 28 28 0 0
BITMAP
00000000
00000000
00000000
00000000
00000000
00000000
00000000
00000000
00000000
00000000
FF000000
FF000000
FF000000
FF000000
FF000000
FF000000
FF000000
FF000000
18000000
18000000
18000000
18000000
18000000
18000000
18000000
18000000
18000000
18000000
ENDCHAR

STARTCHAR E
ENCODING 69
SWIDTH 1076 0
DWIDTH 28 0
BBX 28 28 0 0
BITMAP
00000000
00000000
00000000
00000000
00000000
00000000
00000000
00000000
00000000
00000000
003FC000
003FC000
003FC000
FFFFC000
FFFFC000
003FC000
003FC000
003FC000
00000000
00000000
00000000
00000000
00000000
00000000
00000000
00000000
00000000
00000000
ENDCHAR

STARTCHAR F
ENCODING 70
SWIDTH 1076 0
DWIDTH 28 0
BBX 28 28 0 0
BITMAP
00000000
00000000
00000000
00000000
00000000
00000000
00000000
00000000
00000000
00000000
FF000000
FF000000
FF000000
FFFFC000
FFFFC000
FF000000
FF000000
FF000000
18000000
18000000
18000000
18000000
18000000
18000000
18000000
18000000
18000000
18000000
ENDCHAR

STARTCHAR G
ENCODING 71
SWIDTH 1076 0
DWIDTH 28 0
BBX 28 28 0 0
BITMAP
18000000
18000000
18000000
18000000
18000000
18000000
18000000
18000000
18000000
18000000
FF000000
FF000000
FF000000
FF000000
FF000000
FF000000
FF000000
FF000000
18000000
18000000
18000000
18000000
18000000
18000000
18000000
18000000
18000000
18000000
ENDCHAR

STARTCHAR H
ENCODING 72
SWIDTH 1076 0
DWIDTH 28 0
BBX 28 28 0 0
BITMAP
00000000
00000000
00000000
00000000
00000000
00000000
00000000
00000000
00000000
00000000
003FC000
003FC000
003FC000
FFFFC000
FFFFC000
003FC000
003FC000
003FC000
00060000
00060000
00060000
00060000
00060000
00060000
00060000
00060000
00060000
00060000
ENDCHAR

STARTCHAR I
ENCODING 73
SWIDTH 1076 0
DWIDTH 28 0
BBX 28 28 0 0
BITMAP
18000000
18000000
18000000
18000000
18000000
18000000
18000000
18000000
18000000
18000000
FF000000
FF000000
FF000000
FFFFC000
FFFFC000
FF000000
FF000000
FF000000
00000000
00000000
00000000
00000000
00000000
00000000
00000000
00000000
00000000
00000000
ENDCHAR

STARTCHAR J
ENCODING 74
SWIDTH 1076 0
DWIDTH 28 0
BBX 28 28 0 0
BITMAP
00000000
00000000
00000000
00000000
00000000
00000000
00000000
00000000
00000000
00000000
003FC000
003FC000
003FC000
FFFFFFF0
FFFFFFF0
003FC000
003FC000
003FC000
00000000
00000000
00000000
00000000
00000000
00000000
00000000
00000000
00000000
00000000
ENDCHAR

STARTCHAR K
ENCODING 75
SWIDTH 1076 0
DWIDTH 28 0
BBX 28 28 0 0
BITMAP
00060000
00060000
00060000
00060000
00060000
00060000
00060000
00060000
00060000
00060000
003FC000
003FC000
003FC000
FFFFC000
FFFFC000
003FC000
003FC000
003FC000
00000000
00000000
00000000
00000000
00000000
00000000
00000000
00000000
00000000
00000000
ENDCHAR

STARTCHAR L
ENCODING 76
SWIDTH 1076 0
DWIDTH 28 0
BBX 28 28 0 0
BITMAP
00060000
00030000
00018000
0000C000
00006000
00003000
00001800
00000C00
00000600
00000300
003FC180
003FC0C0
003FC060
803FC030
C03FC010
603FC000
303FC000
181FE000
0C000000
06000000
03000000
01800000
00C00000
00600000
00300000
00180000
000C0000
00060000
ENDCHAR

STARTCHAR M
ENCODING 77
SWIDTH 1076 0
DWIDTH 28 0
BBX 28 28 0 0
BITMAP
00060000
000C0000
00180000
00300000
00600000
00C00000
01800000
03000000
06000000
0C000000
183FC000
303FC000
603FC000
C03FC010
803FC030
003FC060
003FC0C0
003FC180
00000300
00000600
00000C00
00001800
00003000
00006000
0000C000
00018000
00030000
00060000
ENDCHAR

STARTCHAR N
ENCODING 78
SWIDTH 1076 0
DWIDTH 28 0
BBX 28 28 0 0
BITMAP
00060000
00060000
00060000
00060000
00060000
00060000
00060000
00060000
00060000
00060000
003FC000
003FC000
003FC000
FFFFFFF0
FFFFFFF0
003FC000
003FC000
003FC000
00060000
00060000
00060000
00060000
00060000
00060000
00060000
00060000
00060000
00060000
ENDCHAR

STARTCHAR O
ENCODING 79
SWIDTH 1076 0
DWIDTH 28 0
BBX 28 28 0 0
BITMAP
00060000
000C0000
00180000
00300000
00600000
00C00000
01800000
03000000
06000000
0C000000
183FC000
303FC000
603FC000
C03FC000
803FC000
003FC000
003FC000
003FC000
00000000
00000000
00000000
00000000
00000000
00000000
00000000
00000000
00000000
00000000
ENDCHAR

STARTCHAR P
ENCODING 80
SWIDTH 1076 0
DWIDTH 28 0
BBX 28 28 0 0
BITMAP
00000000
00000000
00000000
00000000
00000000
00000000
00000000
00000000
00000000
00000000
FF000000
FF000000
FF000000
FF004000
FF00C000
FF018000
FF030000
FF060000
000C0000
00180000
00300000
00600000
00C00000
01800000
03000000
06000000
0C000000
18000000
ENDCHAR

STARTCHAR Q
ENCODING 81
SWIDTH 1076 0
DWIDTH 28 0
BBX 28 28 0 0
BITMAP
18000000
0C000000
06000000
03000000
01800000
00C00000
00600000
00300000
00180000
000C0000
FF060000
FF030000
FF018000
FF00C000
FF004000
FF000000
FF000000
FF000000
00000000
00000000
00000000
00000000
00000000
00000000
00000000
00000000
00000000
00000000
ENDCHAR

STARTCHAR R
ENCODING 82
SWIDTH 1076 0
DWIDTH 28 0
BBX 28 28 0 0
BITMAP
00000000
00000000
00000000
00000000
00000000
00000000
00000000
00000000
00000000
00000000
003FC000
003FC000
003FC000
803FC000
C03FC000
603FC000
303FC000
183FC000
0C000000
06000000
03000000
01800000
00C00000
00600000
00300000
00180000
000C0000
00060000
ENDCHAR

STARTCHAR S
ENCODING 83
SWIDTH 1076 0
DWIDTH 28 0
BBX 28 28 0 0
BITMAP
00000000
00000000
00000000
00000000
00000000
00000000
00000000
00000000
00000000
00000000
003FC000
003FC000
003FC000
FFFFFFF0
FFFFFFF0
003FC000
003FC000
003FC000
00000000
00000000
00000000
00000000
00000000
00000000
00000000
00000000
00000000
00000000
ENDCHAR

STARTCHAR T
ENCODING 84
SWIDTH 1076 0
DWIDTH 28 0
BBX 28 28 0 0
BITMAP
18000000
18000000
18000000
18000000
18000000
18000000
18000000
18000000
18000000
18000000
FF000000
FF000000
FF000000
FF000000
FF000000
FF000000
FF000000
FF000000
18000000
18000000
18000000
18000000
18000000
18000000
18000000
18000000
18000000
18000000
ENDCHAR

STARTCHAR U
ENCODING 85
SWIDTH 1076 0
DWIDTH 28 0
BBX 28 28 0 0
BITMAP
00060000
000F0000
001F8000
003FC000
007FE000
00FFF000
01FFF800
03FFFC00
07FFFE00
0FFFFF00
1FFFFF80
3FFFFFC0
7FFFFFE0
FFFFFFF0
FFFFFFF0
7FFFFFE0
3FFFFFC0
1FFFFF80
0FFFFF00
07FFFE00
03FFFC00
01FFF800
00FFF000
007FE000
003FC000
001F8000
000F0000
00060000
ENDCHAR

STARTCHAR V
ENCODING 86
SWIDTH 1076 0
DWIDTH 28 0
BBX 28 28 0 0
BITMAP
00060000
00060000
00060000
00060000
00060000
00060000
00060000
00060000
00060000
00060000
003FC000
003FC000
003FC000
FFFFC000
FFFFC000
003FC000
003FC000
003FC000
00060000
00060000
00060000
00060000
00060000
00060000
00060000
00060000
00060000
00060000
ENDCHAR

STARTCHAR W
ENCODING 87
SWIDTH 1076 0
DWIDTH 28 0
BBX 28 28 0 0
BITMAP
00000000
00000000
00000000
00000000
00000000
00000000
00000000
00000000
00000000
00000000
003FC000
003FC000
003FC000
FFFFFFF0
FFFFFFF0
003FC000
003FC000
003FC000
00060000
00060000
00060000
00060000
00060000
00060000
00060000
00060000
00060000
00060000
ENDCHAR

STARTCHAR X
ENCODING 88
SWIDTH 1076 0
DWIDTH 28 0
BBX 28 28 0 0
BITMAP
C0000030
60000060
300000C0
18000180
0C000300
06000600
03000C00
01801800
00C03000
00606000
0030C000
00198000
000F0000
00060000
000F0000
00198000
0030C000
00606000
00C03000
01801800
03000C00
06000600
0C000300
18000180
300000C0
60000060
C0000030
80000010
ENDCHAR

STARTCHAR Y
ENCODING 89
SWIDTH 1076 0
DWIDTH 28 0
BBX 28 28 0 0
BITMAP
00060000
00060000
00060000
00060000
00060000
00060000
00060000
00060000
00060000
00060000
003FC000
003FC000
003FC000
FFFFFFF0
FFFFFFF0
003FC000
003FC000
003FC000
00000000
00000000
00000000
00000000
00000000
00000000
00000000
00000000
00000000
00000000
ENDCHAR

STARTCHAR Z
ENCODING 90
SWIDTH 1076 0
DWIDTH 28 0
BBX 28 28 0 0
BITMAP
18000000
18000000
18000000
18000000
18000000
18000000
18000000
18000000
18000000
18000000
FF000000
FF000000
FF000000
FFFFC000
FFFFC000
FF000000
FF000000
FF000000
18000000
18000000
18000000
18000000
18000000
18000000
18000000
18000000
18000000
18000000
ENDCHAR
ENDFONT
